<?xml version="1.0" standalone="no"?>
<!DOCTYPE svg PUBLIC "-//W3C//DTD SVG 20010904//EN"
 "http://www.w3.org/TR/2001/REC-SVG-20010904/DTD/svg10.dtd">
<svg version="1.0" xmlns="http://www.w3.org/2000/svg"
 width="1024.000000pt" height="1024.000000pt" viewBox="0 0 1024.000000 1024.000000"
 preserveAspectRatio="xMidYMid meet">

<g transform="translate(0.000000,1024.000000) scale(0.100000,-0.100000)"
fill="#000000" stroke="none">
<path d="M0 5120 l0 -5120 5120 0 5120 0 0 5120 0 5120 -5120 0 -5120 0 0
-5120z m3542 4203 c38 -44 29 -86 -25 -115 -31 -16 -67 15 -67 59 0 63 56 97
92 56z m2561 -81 c3 -16 33 -57 66 -93 34 -35 61 -67 61 -71 0 -4 -10 -13 -22
-19 -34 -18 -98 -91 -98 -110 0 -28 -18 -32 -25 -7 -10 32 -40 63 -97 99 -26
17 -48 36 -48 41 0 6 32 39 70 75 56 52 70 71 70 95 0 36 15 29 23 -10z m1217
-54 c0 -7 5 -141 10 -298 5 -160 5 -354 1 -443 -8 -149 -10 -160 -38 -205 -59
-96 -183 -135 -266 -83 -90 56 -90 202 1 275 47 38 66 45 125 46 l57 0 0 215
c0 137 -4 215 -10 215 -36 0 -450 -164 -462 -183 -4 -7 -8 -156 -8 -333 l0
-320 -26 -53 c-36 -71 -87 -105 -161 -105 -53 -1 -54 -2 -49 -26 3 -14 10 -60
16 -104 5 -43 15 -84 21 -92 6 -8 129 -93 273 -189 143 -96 316 -214 382 -263
296 -213 419 -299 619 -432 196 -131 485 -336 522 -370 70 -67 68 -44 71 -568
3 -437 5 -473 20 -467 94 38 102 39 494 42 l388 4 25 -27 c34 -36 34 -86 0
-112 -22 -18 -47 -21 -212 -26 -186 -7 -313 -21 -313 -36 0 -4 17 -26 38 -49
l37 -41 130 10 c72 6 163 8 203 4 61 -5 75 -10 92 -32 27 -34 25 -64 -7 -102
l-27 -32 -185 3 -186 4 -3 -58 -3 -58 368 6 c400 7 408 6 427 -47 6 -18 5 -36
-4 -58 -24 -59 -32 -60 -435 -60 l-365 0 0 -55 0 -55 192 0 192 0 28 -27 c36
-34 35 -60 -1 -103 l-29 -35 -182 3 c-126 2 -187 -1 -196 -9 -17 -14 -18 -62
-4 -90 11 -19 20 -19 303 -13 283 6 293 5 324 -15 18 -11 35 -32 39 -46 8 -32
-12 -82 -40 -97 -15 -8 -113 -11 -322 -9 l-301 2 -6 -23 c-3 -13 -6 -93 -6
-177 -1 -85 -6 -172 -11 -192 -10 -38 -66 -116 -111 -155 -13 -11 -49 -36 -79
-55 l-54 -34 -231 -5 -230 -5 -110 -70 c-60 -38 -155 -103 -210 -144 -55 -41
-152 -111 -215 -156 -63 -45 -189 -135 -280 -200 -299 -216 -433 -305 -473
-316 -39 -10 -39 -11 -17 -26 75 -52 80 -250 11 -364 -16 -26 -83 -89 -95 -89
-12 0 -6 112 9 179 10 41 15 101 13 152 -3 78 -4 84 -25 87 -14 2 -23 10 -23
21 0 32 82 100 325 267 50 34 159 113 243 175 84 63 207 152 273 199 66 47
161 115 210 152 49 37 124 90 167 117 43 28 88 61 101 75 l23 24 171 -5 c229
-8 324 5 392 52 59 40 122 118 142 178 13 35 15 133 14 607 -1 363 -5 579 -12
605 -21 78 -95 161 -176 197 -39 17 -94 18 -1247 17 -664 -1 -1209 0 -1211 3
-3 3 -2 23 3 44 8 38 9 39 57 46 28 3 364 7 747 7 446 1 699 5 703 11 3 5 15
15 26 20 15 8 19 7 19 -4 0 -8 -8 -17 -17 -19 -10 -3 59 -4 152 -3 l170 1 6
45 c4 25 4 212 1 416 l-5 372 -81 56 c-45 31 -151 102 -236 159 -277 184 -511
347 -731 511 -119 89 -253 187 -298 220 -46 32 -91 71 -101 88 -17 29 -17 29
-24 6 -15 -57 -7 -75 60 -145 150 -154 215 -315 245 -613 30 -290 -63 -614
-219 -758 -71 -67 -234 -150 -309 -159 -36 -4 -53 -2 -53 5 0 17 17 28 125 81
118 58 171 101 226 183 53 77 84 150 115 262 47 173 48 331 4 559 -32 166
-124 325 -234 407 l-56 41 0 212 c-1 267 -12 382 -51 519 -73 260 -197 474
-383 667 -133 136 -241 216 -400 295 -181 89 -249 114 -406 148 -254 54 -506
47 -840 -24 -291 -62 -560 -215 -741 -422 -197 -224 -321 -494 -418 -911 -45
-194 -52 -242 -53 -396 -1 -77 -5 -142 -9 -145 -4 -2 -19 0 -34 6 -20 8 -51 3
-138 -20 -117 -31 -306 -64 -315 -55 -13 13 27 35 106 60 135 42 305 106 325
123 9 9 15 22 13 31 -2 9 -7 28 -10 44 -4 17 -13 27 -24 27 -9 0 -57 -23 -107
-51 -49 -28 -131 -71 -181 -94 -71 -33 -100 -54 -130 -90 -38 -45 -83 -79
-434 -328 -91 -64 -219 -156 -285 -204 -66 -49 -137 -99 -158 -113 -21 -14
-40 -36 -44 -50 -11 -42 -9 -958 2 -968 6 -4 42 -6 80 -3 l70 6 1 455 c1 424
2 455 19 465 10 5 113 77 229 159 290 204 473 324 578 378 53 27 77 32 153 36
l90 4 47 49 c41 42 78 63 78 43 0 -4 -16 -43 -36 -87 -104 -228 -103 -608 2
-868 62 -157 134 -252 244 -322 32 -20 136 -45 265 -62 227 -30 252 -58 58
-63 -172 -5 -240 13 -373 103 -97 65 -108 76 -157 155 -162 258 -185 329 -186
560 0 164 14 319 38 410 8 30 13 56 10 58 -13 14 -359 -206 -590 -375 -38 -29
-134 -94 -212 -145 l-142 -93 -3 -367 c-1 -203 -3 -398 -3 -435 l0 -68 825 -2
c454 0 912 -4 1019 -8 185 -7 193 -8 168 -23 -31 -19 -36 -36 -9 -28 10 4 36
0 58 -8 36 -12 18 -14 -216 -20 -140 -4 -748 -9 -1350 -11 -602 -2 -1105 -7
-1118 -11 -52 -15 -52 -19 -52 -788 1 -539 4 -716 13 -732 19 -33 50 -67 81
-92 28 -21 36 -22 257 -22 l227 0 44 -34 c62 -50 220 -156 313 -211 44 -26
111 -71 150 -99 38 -29 135 -96 215 -148 80 -53 184 -124 230 -159 46 -34 127
-90 180 -124 52 -34 108 -76 122 -93 24 -28 26 -36 16 -62 -5 -17 -12 -30 -15
-30 -3 0 -25 18 -50 40 -25 22 -79 58 -121 80 -42 23 -150 93 -241 156 -91 62
-211 144 -266 180 -55 37 -147 98 -205 137 -58 38 -157 105 -220 147 -63 42
-140 91 -171 108 l-56 32 -209 0 -209 0 -68 72 c-38 40 -75 84 -82 98 -12 24
-20 263 -13 410 l3 55 -327 -4 -327 -4 -36 36 c-19 19 -35 43 -35 52 0 9 15
32 34 51 l34 34 318 0 c176 0 324 4 329 8 6 4 11 28 10 55 l0 47 -75 2 c-41 0
-133 2 -203 2 -128 1 -129 1 -153 29 -30 35 -32 89 -5 116 27 27 121 35 292
26 l139 -7 0 65 0 64 -47 -3 c-27 -2 -203 -5 -392 -8 l-345 -4 -28 28 c-37 38
-37 78 0 113 l29 28 389 -1 389 -1 3 50 3 51 -168 0 c-92 0 -178 3 -191 6 -26
7 -52 51 -52 87 0 13 12 34 26 48 25 23 32 24 206 29 l181 5 14 39 c7 22 10
42 7 45 -3 3 -119 8 -258 11 -271 5 -278 7 -297 59 -14 35 6 76 46 95 39 19
190 20 574 6 206 -7 246 -11 253 -24 13 -23 35 -20 42 7 3 12 6 237 6 499 l0
476 48 41 c60 53 335 255 477 353 61 41 164 113 230 161 66 47 154 110 196
140 75 54 113 78 329 200 184 104 196 119 188 232 -3 48 -4 49 -15 23 -16 -36
-89 -58 -208 -65 -79 -4 -94 -2 -122 16 -46 29 -44 62 5 91 46 28 202 94 306
129 92 32 98 40 142 191 84 292 167 453 346 668 255 305 718 503 1213 519 205
6 307 -3 497 -47 160 -37 306 -94 448 -175 138 -79 194 -121 316 -238 114
-108 200 -216 278 -347 54 -89 105 -157 91 -119 -8 22 55 76 100 85 20 3 54 4
75 1 l40 -5 -6 327 -5 327 48 22 c26 12 109 44 183 71 197 72 332 127 408 166
75 38 82 40 82 23z m-3600 -80 c28 -31 34 -61 18 -95 -14 -30 -36 -38 -73 -29
-60 15 -74 78 -28 121 34 31 56 32 83 3z m-251 -14 c12 -15 21 -34 21 -44 0
-34 -39 -70 -75 -70 -62 0 -86 70 -40 115 32 33 68 32 94 -1z m-470 -105 c12
-31 44 -83 70 -115 26 -33 66 -86 90 -119 24 -33 67 -84 95 -114 33 -34 46
-55 38 -58 -58 -22 -247 -265 -306 -394 -5 -11 -7 -11 -12 -1 -3 7 -43 59 -88
115 -45 57 -108 137 -139 179 -32 43 -70 86 -85 97 l-27 20 51 53 c105 109
254 320 269 381 9 35 16 28 44 -44z m2101 -84 c286 -43 514 -143 750 -328 91
-71 135 -118 244 -262 154 -203 222 -375 267 -680 13 -87 14 -337 2 -425 -7
-51 -10 -55 -37 -58 l-28 -4 7 53 c4 29 7 132 7 228 0 355 -60 561 -244 836
-89 134 -160 210 -271 292 -255 190 -457 271 -762 309 -353 44 -660 -40 -949
-258 -176 -133 -273 -269 -375 -526 -53 -134 -67 -190 -92 -383 -17 -136 -20
-192 -15 -326 7 -158 6 -162 -14 -173 -45 -24 -50 -10 -50 132 1 210 15 350
54 516 45 195 118 380 193 494 142 214 424 447 608 503 75 23 232 58 300 68
75 10 318 6 405 -8z m-926 -136 c-127 -66 -296 -207 -390 -326 -162 -204 -245
-406 -304 -732 -11 -63 -21 -115 -22 -117 -9 -7 -116 -34 -140 -34 -32 0 -32
-6 7 165 37 156 71 254 140 401 104 218 209 353 388 496 104 83 185 129 277
159 90 29 111 24 44 -12z m2136 -44 c19 -20 21 -27 11 -39 -29 -34 -81 -26
-81 12 0 16 28 52 40 52 3 0 17 -11 30 -25z m-995 -53 c117 -32 324 -127 428
-196 103 -68 181 -154 226 -249 35 -72 45 -105 61 -218 11 -74 24 -208 30
-299 5 -91 13 -184 16 -206 3 -23 2 -44 -3 -47 -5 -3 -43 14 -85 39 l-75 44
-5 173 c-5 146 -9 181 -26 220 -37 84 -180 200 -279 227 -66 18 -73 26 -73 77
0 65 17 65 132 4 54 -29 98 -49 98 -46 0 25 -156 171 -164 153 -11 -27 -27
-44 -44 -46 -17 -3 -23 8 -42 72 -18 58 -33 86 -66 122 -25 26 -47 44 -51 41
-3 -4 1 -15 10 -24 22 -25 52 -97 67 -163 6 -30 18 -74 26 -98 22 -68 24 -67
-85 -70 -105 -3 -249 -36 -299 -68 -53 -35 -124 -100 -140 -129 -13 -24 -17
-66 -20 -207 -3 -141 -7 -178 -17 -178 -8 0 -16 4 -19 9 -3 5 -6 93 -6 196 -1
181 0 188 24 229 73 125 237 209 451 234 l70 7 -3 35 c-5 63 -32 126 -80 186
-94 117 -195 161 -347 151 -296 -20 -651 -221 -753 -427 -18 -37 -32 -56 -32
-44 0 32 77 183 121 235 47 57 160 143 280 215 117 71 188 84 429 79 113 -3
153 -8 245 -33z m-660 -21 c-3 -5 -18 -12 -34 -16 -30 -6 -166 -81 -261 -143
-117 -76 -242 -218 -294 -333 -45 -99 -59 -332 -34 -551 18 -162 27 -143 -87
-188 -55 -22 -103 -36 -107 -32 -13 13 -30 387 -23 486 17 230 95 381 272 527
87 71 151 107 317 181 118 52 266 92 251 69z m-2080 -303 c4 -101 5 -322 3
-493 -3 -353 -4 -354 -92 -432 -79 -70 -173 -80 -242 -28 -51 39 -67 77 -62
149 5 78 33 132 87 171 36 25 52 30 104 30 58 0 62 2 68 25 10 40 10 460 0
460 -21 0 -135 -42 -271 -100 -80 -34 -164 -69 -188 -78 l-42 -16 2 -366 3
-365 -24 -45 c-48 -91 -105 -133 -200 -146 -66 -9 -129 20 -171 78 -30 40 -32
47 -26 101 13 133 106 222 224 215 l55 -3 -5 352 -5 351 201 83 c111 45 280
118 376 160 96 43 180 78 186 79 8 0 14 -56 19 -182z m5975 -304 c0 -332 -4
-489 -12 -522 -16 -65 -95 -144 -160 -160 -75 -19 -119 -15 -166 15 -56 36
-76 81 -69 150 13 126 102 203 236 203 l44 0 -6 236 c-3 130 -8 238 -10 241
-8 8 -466 -185 -494 -208 -10 -9 -13 -83 -13 -367 0 -247 -4 -367 -12 -395 -7
-22 -34 -63 -60 -93 -96 -105 -230 -112 -320 -17 -53 56 -61 119 -24 198 43
93 137 150 236 144 l52 -4 -3 362 -4 363 45 19 c25 10 56 22 70 26 41 12 551
230 605 258 28 14 53 26 58 27 4 0 7 -214 7 -476z m-4321 215 c-62 -123 -68
-403 -13 -734 5 -32 4 -38 -6 -28 -36 34 -69 391 -52 558 11 110 27 166 64
218 28 39 32 33 7 -14z m3264 -259 c17 -28 17 -30 -3 -50 -23 -23 -41 -25 -58
-8 -17 17 -15 48 5 70 23 25 36 23 56 -12z m-4618 -4 c19 -28 12 -49 -20 -66
-20 -11 -27 -11 -40 0 -20 16 -19 54 1 74 22 22 41 20 59 -8z m4366 -98 c28
-55 139 -178 161 -178 20 0 5 -21 -24 -33 -43 -18 -122 -103 -150 -161 -12
-25 -25 -46 -29 -46 -3 0 -23 27 -43 59 -43 70 -83 106 -149 135 l-48 22 43
34 c99 80 147 133 164 182 9 27 22 48 30 48 7 0 28 -28 45 -62z m-1562 -78
c147 -15 161 -20 161 -62 0 -18 4 -47 8 -63 12 -43 -5 -115 -26 -115 -9 0 -89
7 -177 15 -88 8 -264 18 -391 21 l-231 7 -7 60 c-9 93 -7 145 7 151 20 9 532
-2 656 -14z m-4127 -63 c13 -20 9 -35 -14 -51 -32 -23 -44 -20 -69 15 -22 31
-22 32 -3 46 21 16 73 10 86 -10z m3143 -196 c-6 -5 -57 -25 -115 -44 -58 -19
-145 -51 -195 -70 -131 -52 -480 -175 -539 -190 -96 -24 -118 -1 -28 31 31 11
102 37 157 57 55 20 147 51 205 70 58 18 162 54 232 79 151 54 308 91 283 67z
m-1260 -173 c-3 -57 -8 -131 -11 -165 -5 -62 -6 -63 -42 -73 -20 -5 -44 -10
-52 -10 -9 0 -25 -7 -37 -15 -13 -9 -24 -11 -28 -6 -3 5 -6 77 -8 160 -2 173
-3 172 83 195 105 28 101 31 95 -86z m1693 69 c35 -32 68 -102 91 -192 23 -90
38 -110 75 -101 40 10 50 39 35 99 -18 78 -44 131 -83 175 -20 21 -33 42 -29
46 11 11 68 7 85 -6 23 -18 64 -121 84 -209 18 -83 37 -119 61 -119 24 0 53
30 53 55 0 36 -49 177 -76 217 -29 45 -30 58 -5 58 54 0 73 -32 125 -205 19
-65 39 -122 45 -128 5 -5 21 -7 35 -3 24 6 26 11 26 56 0 53 -40 193 -64 225
-21 28 -20 35 9 35 34 0 47 -25 90 -165 48 -157 51 -165 74 -165 55 0 54 106
-3 225 -33 70 -34 75 -15 75 47 0 74 -53 114 -220 18 -76 37 -100 63 -84 19
13 22 68 8 144 -8 41 -7 44 8 30 39 -31 59 -92 61 -178 2 -46 7 -88 14 -95 19
-19 12 -62 -13 -86 l-23 -22 -21 35 c-17 29 -28 35 -64 40 -24 3 -93 12 -153
21 -61 8 -116 15 -122 15 -15 0 -6 -110 11 -127 6 -7 64 -17 136 -23 225 -19
228 -20 260 -47 17 -13 30 -33 30 -44 0 -27 -46 -36 -81 -15 -34 20 -144 35
-256 36 l-83 0 0 -33 c0 -66 15 -74 157 -81 209 -11 234 -15 265 -47 35 -34
35 -56 3 -71 -20 -9 -28 -8 -42 4 -30 26 -83 37 -193 40 l-105 3 3 -25 c2 -14
15 -37 28 -51 23 -24 35 -27 122 -33 126 -10 190 -24 213 -47 25 -25 24 -43
-5 -58 -20 -11 -28 -10 -48 3 -33 22 -244 42 -264 25 -14 -12 -37 -80 -29 -87
3 -3 72 -11 155 -18 83 -7 161 -16 173 -20 28 -8 67 -43 67 -60 0 -20 -55 -27
-87 -11 -23 12 -196 33 -333 41 -24 1 -25 -2 -23 -48 1 -27 6 -53 11 -58 6 -6
93 -14 195 -18 211 -9 247 -19 247 -70 0 -20 -8 -35 -24 -46 -23 -14 -27 -14
-53 5 -30 22 -106 35 -270 46 l-93 6 0 -55 0 -54 38 -6 c20 -3 89 -8 152 -11
239 -13 260 -18 260 -64 0 -38 -35 -62 -53 -37 -9 11 -52 19 -166 31 -227 22
-213 24 -209 -32 3 -44 5 -48 33 -54 17 -4 71 -7 120 -8 91 -1 254 -17 262
-25 3 -2 9 -21 13 -42 11 -47 -3 -123 -32 -184 -23 -47 -135 -170 -156 -170
-7 0 3 27 22 63 40 72 66 200 47 234 -13 26 -60 39 -76 21 -7 -7 -18 -49 -24
-93 -14 -93 -44 -161 -102 -227 -62 -73 -83 -62 -29 14 39 56 69 144 77 223 5
55 3 65 -16 84 -46 46 -71 19 -82 -90 -10 -101 -43 -173 -114 -246 -67 -69
-103 -74 -46 -5 55 66 92 160 98 252 5 64 2 79 -14 99 -14 17 -25 22 -41 17
-32 -10 -42 -37 -52 -132 -6 -61 -16 -98 -36 -134 -37 -67 -144 -167 -144
-134 0 3 14 22 31 42 50 60 82 146 86 237 5 94 -7 122 -49 112 -31 -8 -36 -19
-48 -109 -16 -114 -78 -212 -169 -270 -68 -43 -71 -34 -9 30 61 62 101 136
119 220 12 59 7 92 -17 116 -37 38 -94 -1 -94 -64 0 -20 -7 -61 -16 -91 -23
-79 -110 -161 -202 -189 -110 -35 -158 -36 -224 -7 -86 38 -122 71 -161 145
-39 74 -57 161 -77 382 -9 102 -30 287 -64 570 -2 19 -2 -21 1 -90 5 -131 32
-402 59 -580 9 -58 19 -163 23 -235 6 -106 11 -138 30 -174 12 -24 19 -47 14
-51 -14 -13 -131 -21 -135 -9 -2 7 -12 7 -31 0 -51 -20 -72 -13 -117 35 -47
51 -93 143 -84 167 3 9 46 37 95 62 104 54 139 87 139 131 0 17 -2 33 -5 36
-3 2 -59 -23 -124 -56 -127 -64 -155 -67 -130 -13 12 26 72 58 179 93 30 10
57 20 59 21 2 2 -1 14 -7 28 -8 18 -20 25 -39 26 -26 0 -26 1 -7 9 55 22 84
110 47 142 -16 14 -25 14 -69 3 -28 -8 -77 -25 -108 -39 -65 -29 -96 -33 -96
-13 0 22 29 42 140 97 57 28 108 57 112 63 21 32 -1 107 -31 107 -5 0 -41 -13
-81 -30 -40 -16 -75 -30 -77 -30 -7 0 7 53 18 66 5 6 34 19 64 30 87 29 106
56 88 123 -5 22 -10 23 -57 18 -28 -3 -60 -7 -71 -9 -33 -5 -25 34 10 50 17 8
47 25 68 38 35 23 37 27 37 74 0 33 -4 50 -12 51 -27 3 -50 -3 -91 -21 -39
-18 -42 -18 -49 -2 -13 34 -7 42 56 71 35 16 69 38 75 50 21 39 -12 111 -50
111 -10 0 -42 -9 -70 -20 -59 -24 -84 -20 -74 10 4 13 -7 41 -37 87 -69 107
-74 125 -48 167 33 54 165 171 263 233 48 30 90 53 93 50 3 -3 -6 -41 -21 -84
-27 -76 -27 -82 -22 -238 4 -88 13 -187 21 -220 17 -74 18 -55 6 103 -18 230
13 368 97 443 52 45 146 86 229 100 117 19 160 -13 205 -151 27 -82 34 -90 74
-90 44 0 59 20 53 74 -8 64 -50 132 -98 156 -22 11 -40 27 -40 34 0 33 81 28
118 -7z m3640 -268 c54 -54 111 -103 126 -109 27 -10 28 -12 21 -57 -6 -43
-15 -55 -126 -163 l-119 -116 0 40 c0 38 6 46 90 127 57 54 90 93 90 107 0 14
-21 34 -70 67 -83 55 -95 71 -114 150 l-14 60 -1 -43 c-1 -39 -7 -50 -58 -104
-32 -33 -75 -71 -95 -84 -31 -20 -38 -30 -38 -57 0 -26 7 -37 36 -56 53 -36
133 -129 155 -180 11 -24 18 -45 16 -47 -2 -2 -41 33 -88 79 -46 46 -100 97
-120 113 -32 28 -36 37 -41 91 l-6 61 42 30 c70 51 167 153 183 195 16 38 17
39 25 17 5 -13 53 -68 106 -121z m-624 4 c8 -16 42 -59 75 -97 34 -38 64 -79
67 -90 4 -17 -15 -42 -87 -113 l-92 -92 -83 87 c-46 48 -83 94 -83 102 -1 33
39 98 99 163 34 37 69 67 76 67 7 0 20 -12 28 -27z m513 -25 c-3 -8 -6 -5 -6
6 -1 11 2 17 5 13 3 -3 4 -12 1 -19z m-4794 -47 c21 -13 69 -60 107 -106 156
-185 245 -471 220 -707 -11 -109 -53 -268 -90 -344 -82 -169 -163 -228 -325
-240 l-90 -7 54 59 c30 32 59 64 64 69 6 6 -2 -11 -17 -37 -15 -27 -23 -48
-17 -48 5 0 11 6 14 14 3 7 18 16 34 19 191 38 199 44 256 172 36 82 55 163
49 208 l-4 37 -85 0 -85 0 6 25 c15 59 7 261 -14 365 -56 271 -136 426 -275
529 l-30 22 95 -3 c79 -3 102 -8 133 -27z m-1720 -35 c15 -14 27 -32 27 -39 0
-18 -65 -77 -84 -77 -8 0 -30 18 -50 40 -41 46 -40 55 13 94 37 28 47 26 94
-18z m4075 -42 c120 -60 229 -239 262 -429 23 -133 24 -200 5 -325 -32 -213
-89 -360 -174 -452 -40 -43 -52 -51 -62 -40 -11 10 -11 18 0 45 85 210 118
386 108 581 -14 270 -88 479 -211 595 -20 19 -36 39 -36 43 0 17 58 7 108 -18z
m202 -15 c101 -62 191 -199 224 -340 8 -35 20 -115 26 -177 27 -248 -52 -545
-181 -674 -47 -46 -79 -61 -79 -35 0 6 27 56 60 110 90 150 113 249 113 487 0
184 -18 292 -71 417 -27 67 -94 175 -135 221 -28 30 -17 28 43 -9z m2247 -41
c-2 -13 -4 -3 -4 22 0 25 2 35 4 23 2 -13 2 -33 0 -45z m-5213 38 c93 -39 179
-157 233 -320 34 -103 37 -122 41 -259 5 -172 -7 -273 -49 -404 -69 -214 -224
-325 -352 -250 -88 52 -148 117 -190 205 -39 84 -46 128 -8 55 23 -45 123
-145 166 -166 77 -37 164 -26 225 29 45 41 92 149 116 269 23 111 15 330 -16
435 -50 175 -152 312 -242 325 -100 15 -235 -93 -263 -210 -22 -95 -35 -217
-36 -345 -1 -122 -3 -139 -12 -105 -17 67 -14 308 6 405 25 117 80 233 132
275 89 72 173 93 249 61z m-2071 -184 l27 -28 -30 -29 -30 -29 -32 31 -31 32
24 25 c31 33 39 32 72 -2z m320 -58 c20 -20 37 -44 37 -54 0 -18 -68 -80 -88
-80 -14 0 -72 68 -72 85 0 14 67 85 79 85 4 0 23 -16 44 -36z m1671 4 c14 -6
32 -21 39 -32 17 -25 60 -174 78 -264 15 -81 7 -257 -16 -341 -21 -71 -71
-135 -118 -146 -45 -12 -98 31 -134 106 -61 128 -68 162 -68 314 l0 140 45 93
c61 130 105 162 174 130z m5493 -286 c3 -7 1 -30 -5 -50 -9 -28 -27 -48 -76
-84 l-64 -46 -61 58 c-51 49 -61 64 -61 92 0 43 6 51 71 102 l54 42 68 -50
c38 -27 72 -56 74 -64z m-7508 78 c45 -22 51 -39 51 -137 l0 -72 -54 -15 c-72
-21 -98 -20 -141 5 l-36 21 3 87 3 86 45 22 c56 27 81 28 129 3z m6127 -681
l-2 -254 -33 -22 c-46 -31 -74 -29 -106 9 -22 26 -25 38 -20 67 7 44 37 71 79
71 l31 0 3 125 c2 69 0 129 -3 135 -4 6 -18 1 -36 -12 -16 -12 -67 -34 -112
-49 l-82 -27 -8 -68 c-5 -38 -6 -108 -4 -156 5 -96 -3 -117 -52 -142 -24 -13
-31 -12 -60 1 -86 42 -69 147 27 162 l37 6 10 144 10 144 112 35 c110 35 113
36 124 71 6 20 16 45 22 55 9 19 11 18 37 -11 l28 -31 -2 -253z m149 298 c11
-7 20 -22 21 -34 0 -13 0 -23 -1 -23 0 0 -16 16 -35 35 -34 35 -26 47 15 22z
m1090 -24 c48 -52 45 -120 -6 -169 -28 -27 -31 -28 -57 -13 -39 21 -54 56 -49
113 3 39 11 55 31 73 35 30 50 29 81 -4z m-1158 -55 c80 -82 134 -201 132
-288 -1 -32 -2 -30 -9 12 -20 118 -74 220 -153 290 -23 20 -37 37 -32 38 6 0
34 -24 62 -52z m152 -1 c-2 -3 -15 10 -28 27 l-24 31 28 -27 c16 -15 27 -29
24 -31z m-6323 -5 c7 -4 13 -51 15 -122 l4 -115 -113 -3 c-96 -2 -113 0 -119
14 -3 9 -6 62 -7 117 l-1 102 35 6 c51 9 173 10 186 1z m1044 -15 c0 -2 -10
-12 -22 -23 l-23 -19 19 23 c18 21 26 27 26 19z m-64 -75 c-18 -16 -18 -16 -6
6 6 13 14 21 18 18 3 -4 -2 -14 -12 -24z m394 -71 c50 -25 97 -92 106 -147 11
-79 -32 -146 -127 -194 -105 -54 -221 8 -249 133 -17 74 -7 120 37 163 73 73
149 88 233 45z m-451 -28 c-6 -16 -17 -64 -24 -108 -11 -68 -13 -73 -14 -34
-1 52 29 169 44 169 3 0 0 -12 -6 -27z m6759 -29 c-5 -28 -28 -29 -28 -1 0 13
3 27 7 30 10 11 25 -9 21 -29z m-6901 -116 c-2 -18 -4 -6 -4 27 0 33 2 48 4
33 2 -15 2 -42 0 -60z m2173 47 c0 -4 -88 -45 -96 -45 -2 0 -4 7 -4 15 0 8 12
17 28 21 15 3 32 7 37 9 16 5 35 5 35 0z m-2939 -85 c16 -9 19 -22 19 -85 0
-63 -3 -76 -19 -85 -24 -13 -221 -13 -241 0 -10 6 -16 32 -18 84 -4 72 -3 76
19 85 33 13 216 13 240 1z m6292 -27 c-8 -52 -13 -54 -13 -5 0 23 4 42 9 42 6
0 7 -17 4 -37z m1178 -18 c14 -31 18 -56 14 -76 -12 -54 -25 -59 -154 -59
-117 0 -118 0 -129 25 -16 34 -15 128 0 143 8 8 52 12 131 12 l118 0 20 -45z
m-6584 -12 c-3 -10 -5 -2 -5 17 0 19 2 27 5 18 2 -10 2 -26 0 -35z m704 -110
c-12 -20 -14 -14 -5 12 4 9 9 14 11 11 3 -2 0 -13 -6 -23z m-354 -74 c52 -14
48 -30 -5 -22 -39 6 -119 40 -127 54 -3 4 16 2 42 -7 26 -8 67 -19 90 -25z
m4353 -40 c0 -18 -22 5 -43 43 l-19 33 31 -33 c17 -18 31 -37 31 -43z m-2330
16 c0 -5 -5 -3 -10 5 -5 8 -10 20 -10 25 0 6 5 3 10 -5 5 -8 10 -19 10 -25z
m55 -79 c17 -16 44 -37 60 -47 25 -16 27 -19 10 -19 -23 0 -96 71 -114 110
-10 22 -10 22 1 5 7 -11 27 -33 43 -49z m-2193 -276 c42 -5 121 -5 175 -1 54
4 99 7 101 6 1 -1 -3 -16 -9 -33 -8 -23 -7 -49 5 -109 9 -43 45 -253 81 -468
80 -472 100 -573 128 -644 20 -50 49 -83 61 -70 3 2 6 282 7 621 l3 616 -25
34 c-42 55 -44 61 -20 53 12 -4 138 -8 280 -10 284 -3 303 -7 362 -72 61 -67
59 -53 59 -359 l0 -282 -50 -45 c-71 -64 -117 -77 -273 -77 l-130 0 6 -112 c4
-62 7 -157 7 -210 0 -94 1 -99 30 -131 17 -19 30 -38 30 -42 0 -5 -53 -6 -117
-3 -65 3 -206 3 -313 -1 -107 -4 -197 -6 -199 -4 -2 1 9 17 24 35 22 26 26 38
21 67 -4 20 -11 68 -18 106 l-11 70 -113 0 -113 0 -21 -88 c-24 -100 -22 -122
16 -160 15 -15 24 -27 20 -27 -90 -3 -550 1 -553 4 -2 2 -15 46 -27 97 -13 52
-50 162 -82 246 l-58 151 -44 4 -43 3 3 -211 3 -211 28 -36 c34 -45 34 -57 0
-49 -16 4 -88 5 -161 2 -72 -3 -132 -1 -132 3 0 4 9 20 21 36 20 27 20 38 21
624 l2 596 -27 40 c-15 22 -27 42 -27 44 0 1 44 -1 98 -6 53 -4 174 -5 267 -2
l170 7 55 -29 c31 -16 68 -47 86 -70 l31 -40 7 -257 c7 -300 4 -318 -78 -376
-25 -18 -46 -39 -46 -47 0 -7 13 -54 29 -105 16 -51 39 -128 50 -171 24 -88
69 -183 99 -210 20 -19 21 -18 31 20 21 78 61 292 76 405 9 65 43 261 76 435
33 175 63 332 65 348 5 23 -1 39 -25 69 -36 45 -38 51 -13 41 9 -4 52 -11 94
-15z m1850 -22 c26 -11 68 -42 93 -69 l45 -48 0 -189 0 -189 -29 -44 c-16 -24
-44 -53 -62 -63 -31 -18 -32 -20 -14 -30 11 -6 40 -30 65 -53 l45 -42 3 -203
c2 -112 0 -218 -3 -236 -8 -46 -56 -95 -117 -123 -51 -23 -63 -24 -298 -25
-135 -1 -256 -4 -268 -8 -29 -9 -29 7 1 47 l22 32 0 588 0 588 -35 47 -36 47
270 -3 c246 -3 275 -5 318 -24z m742 12 c-17 -37 -12 -80 30 -300 25 -129 66
-361 91 -515 56 -340 67 -390 102 -458 15 -28 29 -54 30 -57 4 -6 -300 0 -306
6 -2 2 3 12 12 22 21 23 21 35 0 155 l-16 97 -117 0 -117 0 -18 -87 c-22 -105
-21 -130 5 -158 11 -12 20 -25 20 -31 0 -5 -64 -9 -150 -9 -83 0 -150 2 -150
4 0 2 9 18 19 35 12 19 35 116 60 251 23 121 51 270 62 330 11 61 45 234 75
385 30 151 54 276 54 277 0 1 -13 17 -29 35 l-29 33 189 0 c164 0 188 -2 183
-15z m1526 -115 c1 -71 5 -150 10 -175 4 -25 7 -46 5 -48 -1 -2 -22 30 -46 70
l-44 73 -71 3 -71 3 -6 -138 c-4 -76 -8 -315 -9 -531 l-2 -392 32 -33 c18 -18
32 -35 32 -37 0 -3 -74 -5 -165 -6 -91 -1 -165 2 -165 6 0 4 7 13 14 20 8 6
20 26 25 43 6 19 13 239 16 522 3 270 8 502 11 518 l6 27 -81 0 -80 0 -43 -65
c-23 -36 -44 -61 -46 -56 -2 5 4 46 12 91 18 93 21 198 6 220 -9 13 -12 12
-25 -4 -23 -31 -28 -80 -22 -214 l6 -125 -42 74 -42 74 -67 3 -68 3 0 -521 c0
-555 -1 -547 48 -602 14 -17 6 -18 -151 -18 -92 0 -167 3 -167 6 0 3 10 20 23
37 25 36 24 23 29 740 l3 357 -82 0 -82 0 -42 -60 c-24 -33 -44 -58 -45 -57
-2 2 3 39 11 82 22 122 20 156 -13 201 l-29 39 709 0 708 0 0 -130z m360 126
c0 -2 -11 -16 -25 -33 -25 -29 -25 -30 -25 -241 0 -117 -3 -357 -7 -534 l-6
-323 124 0 c68 0 130 4 138 9 8 5 28 35 45 67 36 68 63 85 53 34 -4 -18 -7
-98 -7 -179 l0 -146 -302 3 c-319 2 -319 2 -280 46 15 16 17 73 20 609 l3 590
-31 49 c-16 27 -30 50 -30 51 0 1 74 2 165 2 91 0 165 -2 165 -4z m651 -1
l298 0 -15 -37 c-12 -29 -15 -66 -12 -165 1 -70 2 -128 2 -128 -1 0 -20 30
-43 66 l-42 66 -131 -4 -132 -5 0 -182 -1 -182 105 3 104 3 24 35 c13 19 27
37 33 38 5 2 9 -57 9 -145 0 -81 5 -166 10 -188 5 -22 7 -41 5 -43 -2 -2 -19
21 -39 52 l-35 55 -108 -4 -108 -5 -3 -180 -2 -180 133 0 c152 0 157 2 197 93
24 54 46 64 36 16 -3 -17 -6 -97 -6 -178 l0 -146 -311 3 -311 3 21 34 c19 33
20 55 25 625 4 423 3 598 -5 613 -6 12 -23 35 -38 51 l-26 29 34 -7 c18 -3
168 -6 332 -6z m885 -32 c26 -18 57 -46 68 -61 24 -32 34 -119 35 -291 l1
-110 -58 61 c-47 50 -67 63 -103 70 l-44 9 -5 74 -5 75 -99 3 c-73 2 -102 -1
-108 -10 -4 -7 -8 -65 -8 -130 l0 -116 88 -55 c48 -30 127 -78 176 -107 49
-29 107 -71 128 -92 l38 -38 0 -215 c0 -233 -4 -257 -54 -307 -54 -53 -89 -62
-254 -66 -149 -4 -154 -4 -207 23 -63 30 -123 95 -130 139 -2 17 -6 90 -7 162
l-4 130 35 -23 c29 -20 46 -23 118 -23 l84 0 -6 -52 c-3 -29 -8 -68 -11 -86
-8 -54 6 -62 113 -62 66 0 95 4 97 13 3 6 7 75 10 153 l5 141 -87 48 c-147 82
-255 151 -306 196 l-48 43 7 200 c8 219 12 238 68 280 65 50 91 55 263 56
l162 0 48 -32z m-7522 -1323 l29 -25 -28 -40 c-33 -48 -54 -50 -83 -10 -29 38
-28 54 4 79 34 27 43 26 78 -4z m2513 -228 c63 -59 88 -116 80 -183 -7 -63
-17 -71 -61 -42 -26 17 -40 36 -52 71 -11 34 -29 58 -61 85 -26 20 -70 58 -99
84 l-53 47 77 3 c42 2 86 -1 97 -6 11 -5 43 -31 72 -59z m1345 11 c108 -250
184 -446 177 -451 -2 -2 -27 -1 -56 1 -51 4 -52 5 -69 48 l-17 45 -106 -3
-106 -3 -25 -48 -25 -47 -52 2 c-50 2 -65 10 -44 22 5 3 23 43 39 89 17 45 58
152 91 237 l60 155 38 6 c21 3 45 7 53 8 10 0 25 -21 42 -61z m1833 52 l60 0
-52 -35 c-52 -35 -155 -147 -184 -201 -14 -26 -20 -29 -65 -29 l-49 0 -3 43
c-4 49 20 96 84 170 44 52 67 63 114 57 19 -3 62 -5 95 -5z m-2353 -10 c55
-16 143 -100 162 -157 34 -99 10 -201 -62 -264 -59 -52 -104 -65 -239 -72
-121 -5 -123 -5 -124 16 -1 12 -4 119 -8 237 -4 118 -11 223 -15 233 -8 16 2
17 120 17 71 0 146 -5 166 -10z m1085 -26 c79 -63 97 -160 43 -226 -45 -54
-120 -88 -197 -88 l-62 0 -3 -77 -3 -78 -55 0 -55 0 5 145 c7 209 6 312 -3
338 l-9 23 150 -3 150 -3 39 -31z m422 17 c73 -38 118 -122 102 -194 -19 -83
-103 -136 -213 -137 l-68 0 0 -80 0 -80 -55 0 -55 0 0 233 c0 127 -3 242 -6
255 -6 22 -6 22 125 22 111 0 138 -3 170 -19z m-2923 -1 l54 0 29 -58 c30 -59
74 -104 197 -203 38 -30 93 -83 122 -117 l54 -62 -49 0 c-40 0 -64 9 -138 51
-99 57 -238 154 -272 191 -28 29 -69 121 -79 172 -6 35 -5 38 10 33 10 -4 42
-7 72 -7z m4346 -6 c9 -6 -34 -76 -71 -117 -14 -16 -60 -49 -101 -74 -219
-134 -303 -173 -415 -194 -45 -8 -80 -24 -142 -65 -80 -53 -235 -124 -272
-124 -19 0 -31 19 -31 47 0 30 50 77 171 161 26 17 60 50 77 72 16 23 54 59
83 80 28 22 68 54 87 71 33 31 36 31 48 14 8 -10 15 -33 15 -49 1 -17 2 -40 3
-51 1 -15 7 -19 26 -17 24 3 307 187 365 238 28 24 35 25 90 19 32 -3 63 -9
67 -11z m-4759 -73 c125 -80 365 -241 519 -348 197 -138 315 -230 418 -329
134 -128 359 -293 492 -360 29 -15 150 -93 268 -174 118 -81 242 -164 275
-185 33 -20 103 -68 155 -105 139 -100 318 -210 340 -210 19 0 62 28 430 281
242 166 587 395 711 472 57 35 170 113 250 173 186 138 375 278 459 337 36 26
119 85 185 133 66 47 163 116 215 152 52 36 145 100 207 143 l112 79 73 0 73
-1 -40 -36 c-81 -72 -519 -397 -735 -544 -150 -103 -328 -230 -495 -354 -60
-45 -243 -170 -405 -278 -368 -244 -659 -441 -770 -521 -47 -34 -126 -88 -177
-120 l-92 -58 -113 69 c-62 38 -156 98 -208 133 -52 36 -130 87 -172 115 -87
57 -391 262 -518 350 -47 32 -132 90 -190 129 -100 66 -227 166 -405 317 -91
77 -519 386 -735 529 -80 54 -185 127 -235 164 -49 36 -102 72 -117 79 -46 20
-32 27 52 27 l81 0 92 -59z m-784 -97 c39 -33 39 -46 -1 -78 l-33 -25 -32 31
c-40 39 -41 50 -7 77 34 27 36 26 73 -5z m1720 -71 c226 -199 301 -282 301
-332 0 -23 -2 -24 -49 -18 -27 3 -69 16 -93 28 -74 38 -235 186 -266 246 -24
44 -10 143 20 143 6 0 45 -30 87 -67z m-2092 0 c26 -27 89 -100 142 -163 53
-63 122 -143 154 -178 67 -72 68 -63 -28 -172 -37 -41 -101 -118 -144 -170
-42 -52 -99 -119 -127 -149 l-50 -54 -117 124 c-64 68 -143 159 -175 201 -33
42 -71 91 -86 109 -15 17 -26 40 -24 51 4 24 378 448 396 448 7 0 34 -21 59
-47z m7121 -605 c-3 -573 -3 -584 -25 -630 -29 -63 -94 -132 -149 -157 -55
-26 -158 -30 -200 -8 -39 20 -90 75 -104 111 -5 15 -11 54 -12 85 -3 133 118
256 265 266 l52 3 5 44 c3 23 3 152 0 285 l-5 242 -85 -35 c-47 -20 -112 -46
-145 -59 -66 -26 -354 -151 -360 -156 -2 -2 -5 -207 -8 -454 -5 -451 -5 -451
-30 -506 -30 -69 -76 -122 -136 -157 -40 -23 -57 -27 -128 -27 -75 0 -84 2
-120 31 -80 63 -113 200 -69 283 52 98 160 172 256 177 l55 3 3 435 2 435 80
30 c44 17 82 31 84 31 5 0 85 33 396 166 58 25 164 74 235 108 102 50 132 61
138 50 4 -8 7 -276 5 -596z m-2128 524 c36 -28 36 -47 -3 -78 -26 -20 -47 -28
-83 -29 -27 -1 -71 -12 -99 -24 -85 -38 -244 -150 -275 -194 -45 -63 -49 -67
-76 -67 -36 0 -49 40 -28 88 45 109 100 161 273 258 134 75 231 90 291 46z
m2528 -94 c23 -21 42 -40 42 -43 0 -4 -30 -34 -66 -69 l-66 -64 -34 38 c-18
20 -52 50 -74 65 l-41 28 66 59 c36 33 65 67 65 77 0 34 13 30 40 -12 15 -23
45 -59 68 -79z m-6838 -25 c0 -6 -16 -20 -35 -32 -20 -11 -45 -36 -56 -56 -26
-44 -41 -44 -62 0 -11 24 -31 42 -62 57 -25 12 -45 25 -45 29 0 4 22 23 49 43
27 19 60 49 73 66 l23 31 57 -63 c31 -35 57 -68 58 -75z m1787 97 c79 -35 130
-78 161 -134 29 -50 36 -56 101 -81 164 -62 234 -160 201 -280 -12 -44 -13
-44 -39 -31 -39 21 -68 56 -83 101 -11 34 -30 53 -118 118 -58 43 -143 107
-189 142 -46 36 -110 77 -142 92 -64 30 -74 51 -37 77 30 22 94 20 145 -4z
m2628 -306 c-19 -51 -90 -118 -161 -153 -27 -14 -96 -57 -154 -96 -145 -98
-159 -103 -226 -80 -30 10 -54 24 -54 30 0 7 19 21 42 31 24 10 77 43 118 73
41 30 120 83 175 119 55 35 127 85 160 111 33 26 71 54 85 63 25 16 25 15 28
-20 2 -19 -4 -55 -13 -78z m-2760 -35 c22 -20 87 -71 145 -112 99 -70 195
-169 195 -200 0 -21 -52 -19 -96 3 -53 27 -257 164 -327 219 -55 43 -86 93
-97 154 -13 70 -2 73 72 21 38 -26 86 -64 108 -85z m-1108 91 c31 -29 36 -103
31 -498 l-4 -347 -26 -56 c-36 -78 -86 -125 -154 -145 -169 -49 -281 101 -197
265 37 73 105 111 196 111 l60 0 -6 222 c-4 121 -9 223 -11 226 -8 7 -280 -92
-402 -146 l-109 -49 0 -374 c0 -334 -2 -377 -17 -405 -93 -170 -300 -192 -369
-40 -27 59 -24 113 9 177 36 72 98 111 184 117 l61 5 -5 348 c-5 317 -4 348
11 354 9 4 70 26 136 50 126 45 425 161 485 188 50 22 102 21 127 -3z m3411
-102 c50 -50 -42 -147 -232 -247 -89 -46 -120 -51 -136 -20 -19 35 -3 65 60
111 33 24 88 65 122 92 93 72 156 94 186 64z m-307 -50 c22 -12 39 -25 39 -29
0 -14 -47 -36 -90 -42 -66 -8 -281 -121 -360 -188 -36 -31 -76 -62 -90 -69
-46 -24 -1 -22 62 3 87 35 154 39 165 12 3 -9 -8 -38 -25 -65 -17 -28 -27 -50
-23 -50 46 0 320 122 414 184 35 24 41 17 28 -31 -19 -69 -121 -153 -266 -219
-52 -24 -64 -26 -143 -20 -48 3 -104 8 -124 12 l-37 6 -12 -45 c-16 -65 -68
-121 -137 -148 -47 -19 -76 -23 -162 -23 -95 0 -116 4 -218 38 -139 47 -193
86 -216 152 -9 26 -16 50 -16 52 0 14 100 -13 177 -47 158 -70 257 -90 335
-67 57 16 148 69 148 86 0 5 -17 10 -37 10 -46 0 -73 24 -73 65 0 36 13 51 49
57 14 1 26 8 28 14 5 14 -56 29 -172 44 -49 6 -136 20 -193 30 -57 11 -137 20
-178 20 -58 0 -76 3 -81 16 -17 45 66 104 148 104 63 0 377 -56 446 -79 l58
-20 55 53 c70 68 131 108 233 156 89 42 108 47 181 49 33 1 60 -6 87 -21z
m-1558 -77 c64 -55 193 -144 252 -174 28 -13 91 -37 140 -52 122 -38 145 -50
145 -79 0 -30 -15 -42 -70 -56 -36 -9 -60 -8 -115 3 -120 25 -149 35 -220 79
-152 91 -235 187 -235 271 0 45 1 47 29 47 20 0 44 -13 74 -39z m4667 -41 c7
-17 33 -48 57 -69 l45 -38 -43 -24 c-24 -14 -50 -37 -57 -52 l-13 -27 -33 35
c-18 19 -50 42 -70 50 -20 8 -36 17 -36 19 0 2 22 20 48 39 27 19 54 49 61 66
17 39 25 39 41 1z m-5781 -34 c12 -19 26 -60 32 -92 23 -122 135 -287 249
-364 54 -36 110 -100 110 -124 0 -5 -28 -6 -65 -3 -178 17 -344 195 -389 420
-21 104 -7 197 29 197 7 0 23 -15 34 -34z m279 -15 c15 -10 60 -40 101 -67
142 -94 194 -164 206 -279 6 -48 4 -63 -8 -74 -30 -25 -97 37 -97 91 0 23 -24
53 -130 162 -117 119 -130 137 -124 160 7 31 16 32 52 7z m3308 -82 c4 -7 -23
-38 -65 -76 -79 -72 -114 -123 -132 -197 -10 -40 -26 -62 -85 -122 -63 -64
-74 -71 -79 -54 -8 27 -14 26 -101 -15 -113 -52 -204 -117 -249 -177 -39 -53
-84 -148 -85 -179 0 -9 -6 -22 -14 -28 -7 -6 -11 -21 -9 -34 3 -17 -6 -33 -33
-60 -45 -44 -79 -48 -96 -13 -18 41 -5 57 40 50 37 -6 38 -5 36 23 -2 46 -4
49 -14 33 -6 -9 -10 -10 -10 -3 0 6 5 15 10 18 6 3 10 38 10 76 0 38 7 85 14
104 35 84 154 191 276 250 93 44 147 52 200 31 22 -9 52 -16 66 -16 24 0 25 2
18 28 -15 50 -7 120 20 166 30 52 76 93 175 158 76 50 95 56 107 37z m706
-140 c21 -20 38 -39 38 -44 0 -6 -118 -125 -124 -125 -1 0 -9 15 -19 33 -10
17 -36 45 -57 61 -22 17 -40 35 -40 41 0 6 13 18 29 28 16 9 44 36 62 58 l33
41 20 -28 c11 -16 37 -45 58 -65z m-4362 -304 c0 -165 11 -186 167 -331 126
-118 212 -229 245 -317 15 -38 20 -76 19 -148 0 -116 -23 -186 -85 -262 -72
-89 -251 -198 -363 -222 -43 -9 -44 11 -3 81 22 39 54 70 125 123 134 101 168
152 181 276 5 37 0 65 -16 110 -20 53 -39 76 -174 210 -124 122 -159 163 -189
221 -89 172 -89 299 0 447 l36 59 28 -64 c26 -58 28 -73 29 -183z m3707 237
c26 -17 32 -130 38 -757 6 -607 5 -651 -12 -682 -19 -36 -61 -58 -92 -48 -11
3 -31 19 -44 34 l-24 29 -6 519 c-4 286 -4 595 0 687 l6 167 56 29 c63 33 62
32 78 22z m-5109 -85 c23 -23 42 -48 42 -54 0 -6 -20 -29 -46 -52 l-45 -42
-41 40 c-22 23 -44 41 -49 41 -21 0 -6 24 39 65 26 25 49 44 52 45 3 0 25 -19
48 -43z m1861 21 c14 -35 155 -159 285 -251 31 -22 32 -36 6 -65 -30 -32 -76
-28 -156 13 -58 28 -78 45 -119 101 -44 61 -50 74 -53 131 -2 34 -2 69 2 78 8
22 25 18 35 -7z m413 -92 c214 -76 378 -273 391 -470 l6 -78 -32 6 c-17 4 -48
23 -69 42 -29 29 -38 47 -43 88 -13 96 -71 158 -275 292 -73 48 -134 93 -137
101 -9 23 17 43 56 43 20 0 66 -11 103 -24z m2628 -69 c-7 -25 -21 -55 -31
-66 -24 -25 -194 -141 -208 -141 -15 0 -41 42 -41 65 0 11 7 28 14 38 12 15
17 16 34 6 17 -11 24 -10 44 9 65 60 184 148 191 142 4 -4 3 -28 -3 -53z m608
-18 c47 -46 47 -43 -17 -108 l-34 -34 -45 47 -45 48 44 44 c24 24 46 44 49 44
3 0 24 -19 48 -41z m-3840 -135 c49 -20 90 -60 97 -95 8 -36 -14 -89 -37 -89
-46 0 -69 31 -88 116 -6 27 -13 57 -16 67 -7 21 -3 21 44 1z m327 -53 c28 -13
79 -50 120 -90 81 -78 136 -117 224 -160 l63 -30 -7 27 c-17 64 -17 118 -1
131 20 17 46 -1 46 -31 0 -10 8 -31 17 -45 21 -31 168 -143 189 -143 8 0 26
11 40 25 14 14 27 25 30 25 3 0 4 -17 2 -37 -5 -63 -66 -82 -188 -60 -8 2 -31
18 -50 35 -25 23 -36 29 -38 18 -2 -8 -13 -17 -25 -20 -72 -19 -183 11 -286
78 -133 87 -202 180 -216 291 -6 49 -6 50 12 29 10 -12 40 -31 68 -43z m2835
4 c0 -63 -34 -145 -83 -201 -97 -111 -287 -190 -387 -161 -23 7 -28 2 -60 -60
-38 -77 -139 -184 -210 -226 -56 -33 -148 -57 -216 -57 l-52 0 -71 -84 c-82
-98 -152 -140 -265 -157 -142 -22 -299 37 -388 146 -91 112 -87 108 -111 100
-12 -4 -46 -10 -76 -12 -50 -5 -63 -1 -150 43 -111 58 -181 117 -210 179 -32
69 -29 76 27 68 66 -8 79 -15 151 -73 35 -28 99 -69 142 -91 l78 -39 -2 83 -2
82 29 3 c28 4 29 3 23 -38 -6 -49 18 -83 88 -124 24 -15 58 -46 74 -69 42 -62
133 -108 221 -115 55 -4 82 0 148 22 73 25 89 35 188 126 97 89 109 104 111
135 1 41 18 65 45 65 28 0 33 -27 14 -79 -29 -81 -19 -88 67 -45 161 81 262
190 374 404 44 83 49 89 68 64 24 -31 20 -50 -41 -209 -7 -19 -6 -19 17 2 13
11 74 53 134 93 79 51 137 99 205 171 53 54 101 99 108 99 8 0 12 -16 12 -45z
m-1927 -138 c98 -46 188 -116 226 -176 68 -105 102 -215 87 -275 -5 -20 -13
-26 -35 -26 -50 0 -73 29 -82 103 -8 67 -35 133 -63 156 -23 19 -19 3 7 -33
35 -46 42 -65 12 -31 -14 17 -36 41 -48 54 -25 27 -202 148 -264 179 -50 26
-57 35 -48 69 6 24 8 25 68 21 46 -3 84 -14 140 -41z m1177 3 c29 -29 13 -53
-63 -91 -72 -36 -170 -105 -209 -145 -45 -48 -78 -154 -48 -154 25 0 4 -36
-58 -100 -81 -84 -102 -88 -132 -29 -12 23 -19 47 -16 55 7 18 87 19 104 2 17
-17 16 0 -4 75 -26 99 -7 154 84 250 118 123 288 191 342 137z m-2884 -134
c19 -22 34 -45 34 -52 0 -14 -119 -122 -156 -142 -20 -11 -30 -10 -58 3 -44
21 -146 113 -146 131 0 23 59 92 124 145 l59 48 55 -47 c29 -25 69 -64 88 -86z
m5263 39 c23 -27 41 -56 41 -64 0 -8 -19 -31 -41 -52 l-42 -39 -37 33 c-20 17
-45 37 -54 42 -17 10 -14 16 28 65 25 29 46 58 46 63 0 17 18 2 59 -48z
m-2312 5 c-3 -21 -17 -40 -17 -22 0 13 11 42 16 42 2 0 3 -9 1 -20z m1323
-178 c19 -25 37 -51 39 -56 2 -5 -13 -23 -34 -41 l-38 -31 -48 30 c-49 32 -60
52 -35 62 8 3 27 23 42 45 14 21 29 39 33 39 3 -1 22 -22 41 -48z m-1882 -58
c3 -30 0 -34 -55 -59 -32 -15 -66 -31 -75 -36 -25 -13 -57 -11 -119 7 -66 19
-80 32 -82 75 l-2 34 125 6 c206 9 204 9 208 -27z m1187 -21 c31 -34 31 -38
-1 -68 -35 -32 -41 -31 -81 7 l-33 32 27 28 c34 35 55 35 88 1z m-281 -142 c8
-91 -2 -230 -15 -209 -7 10 -9 10 -9 1 0 -7 -9 -13 -20 -13 -27 0 -31 24 -28
165 3 115 4 120 27 132 14 6 28 10 32 8 3 -3 10 -40 13 -84z m-2190 49 c40
-26 76 -87 76 -129 0 -44 -34 -94 -82 -121 -33 -18 -43 -20 -72 -10 -19 6 -51
29 -70 51 -30 33 -36 46 -36 85 0 56 20 95 62 123 41 26 84 27 122 1z m930
-78 c-6 -14 -8 -13 -14 8 -4 14 -2 31 4 39 9 12 12 10 14 -8 2 -12 0 -30 -4
-39z"/>
<path d="M6041 9134 c-30 -38 -26 -61 14 -101 l36 -36 34 33 c43 41 44 63 6
101 -36 36 -63 37 -90 3z"/>
<path d="M3045 7649 c-38 -17 -109 -46 -158 -66 -48 -19 -90 -40 -94 -45 -9
-16 73 -1 199 36 88 26 113 37 124 57 15 27 18 49 7 49 -5 0 -39 -14 -78 -31z"/>
<path d="M6532 7478 c5 -107 -6 -94 190 -227 128 -87 263 -184 358 -257 92
-69 246 -175 645 -442 209 -140 386 -261 393 -270 9 -12 12 -112 12 -423 0
-223 3 -421 6 -438 l7 -31 74 0 74 0 -3 473 c-2 384 -6 477 -17 491 -16 19
-196 145 -524 367 -126 85 -351 241 -500 348 -150 107 -314 223 -365 258 -52
35 -150 104 -219 153 -68 50 -127 90 -130 90 -3 0 -3 -41 -1 -92z"/>
<path d="M2958 8848 c-7 -13 -24 -44 -37 -69 -13 -26 -47 -79 -77 -119 l-54
-72 37 -51 c20 -29 56 -77 80 -108 24 -31 52 -80 63 -110 l19 -54 1 46 c0 50
25 97 113 208 l50 64 -19 31 c-10 17 -32 49 -49 71 -16 22 -47 73 -68 113 -21
39 -40 72 -41 72 -2 0 -10 -10 -18 -22z m39 -187 c17 -16 39 -40 48 -54 15
-24 15 -26 -26 -61 -24 -20 -45 -36 -49 -36 -3 0 -28 23 -55 51 l-50 51 45 39
c25 21 47 39 50 39 3 0 19 -14 37 -29z"/>
<path d="M5230 7720 c0 -17 6 -31 13 -31 24 -3 42 3 56 16 20 20 -3 45 -40 45
-26 0 -29 -4 -29 -30z"/>
<path d="M5080 7721 c0 -26 15 -34 46 -27 15 4 24 14 24 26 0 16 -7 20 -35 20
-28 0 -35 -4 -35 -19z"/>
<path d="M5380 7726 c0 -29 13 -46 35 -46 27 0 49 24 41 45 -7 20 -76 21 -76
1z"/>
<path d="M5531 7726 c-20 -24 4 -58 37 -54 37 4 45 52 10 62 -32 8 -34 8 -47
-8z"/>
<path d="M5677 7723 c-4 -3 -7 -17 -7 -29 0 -28 42 -43 65 -24 23 19 18 39
-11 50 -30 12 -38 12 -47 3z"/>
<path d="M5790 7685 c0 -20 5 -25 25 -25 20 0 25 5 25 25 0 20 -5 25 -25 25
-20 0 -25 -5 -25 -25z"/>
<path d="M4940 7049 c-14 -5 -90 -31 -170 -57 -123 -40 -147 -51 -160 -74 -13
-25 -13 -29 2 -44 15 -16 27 -16 115 -5 54 6 123 19 153 28 44 14 107 17 320
19 146 1 271 3 278 3 17 1 16 72 -2 96 -17 24 -87 32 -326 39 -115 3 -194 2
-210 -5z"/>
<path d="M4255 6840 c-3 -5 -2 -10 4 -10 5 0 13 5 16 10 3 6 2 10 -4 10 -5 0
-13 -4 -16 -10z"/>
<path d="M4958 6839 c-19 -11 -132 -26 -268 -37 -81 -7 -85 -8 -94 -35 -8 -21
-6 -31 7 -44 15 -15 25 -16 109 -4 51 7 101 15 111 17 9 3 17 2 17 -3 0 -4
-45 -26 -100 -47 -110 -43 -130 -59 -130 -103 0 -40 21 -56 62 -48 83 16 238
70 257 89 11 12 30 33 43 47 46 50 110 61 333 57 l200 -3 3 47 c3 42 1 48 -20
52 -20 4 -455 27 -498 26 -8 0 -23 -5 -32 -11z"/>
<path d="M5002 6660 c-13 -5 -32 -29 -42 -54 -13 -28 -29 -47 -47 -54 -138
-54 -215 -82 -226 -82 -7 0 -23 -7 -36 -16 -19 -14 -22 -23 -18 -51 4 -19 11
-41 18 -49 26 -32 112 -4 207 67 65 49 140 85 207 99 28 6 124 14 214 18 l164
7 12 42 12 41 -41 6 c-22 3 -101 10 -175 16 -74 5 -155 12 -180 15 -25 2 -56
0 -69 -5z"/>
<path d="M5547 6580 c-52 -62 -42 -122 33 -195 46 -45 57 -41 96 37 30 60 30
83 -1 124 -57 75 -87 83 -128 34z"/>
<path d="M5073 6450 c-17 -4 -48 -17 -68 -29 -20 -12 -65 -30 -100 -42 -44
-14 -62 -24 -59 -34 6 -15 -59 -48 -117 -60 -56 -12 -79 -31 -79 -68 0 -39 24
-77 49 -77 10 0 53 10 97 21 66 18 100 21 209 18 72 -2 227 -3 345 -4 l215 0
3 29 c2 15 1 38 -2 51 -5 21 -10 22 -213 29 -185 6 -319 18 -363 33 -49 16
196 40 433 42 51 1 57 3 57 22 0 11 -13 34 -29 50 l-29 29 -159 -1 c-87 -1
-172 -4 -190 -9z"/>
<path d="M4975 6110 c-133 -27 -267 -60 -288 -72 -15 -8 -18 -17 -14 -43 7
-44 35 -85 57 -85 10 0 68 15 128 34 151 48 243 58 487 56 116 -1 218 -2 228
-1 13 1 17 10 17 40 0 21 -6 43 -12 49 -7 5 -110 15 -228 21 -118 7 -231 14
-250 16 -19 2 -75 -5 -125 -15z"/>
<path d="M5057 5934 c-3 -4 -28 -10 -54 -15 -48 -9 -204 -52 -256 -72 -40 -14
-58 -46 -49 -82 16 -59 38 -57 292 22 80 25 99 26 343 31 l257 4 0 43 c0 33
-4 45 -17 49 -57 17 -501 34 -516 20z"/>
<path d="M6078 5645 c-3 -6 -8 -23 -12 -40 l-6 -30 16 28 c8 16 14 33 11 40
-2 6 -6 7 -9 2z"/>
<path d="M8118 7033 c-1 -5 -16 -15 -33 -23 -37 -19 -39 -41 -3 -51 32 -8 71
9 76 34 6 28 -30 62 -40 40z"/>
<path d="M3315 6620 c-83 -142 -93 -245 -39 -410 15 -47 28 -96 28 -110 1 -39
45 -39 89 0 57 50 72 103 72 260 0 154 -22 249 -72 309 l-29 33 -49 -82z"/>
<path d="M2634 5874 c-17 -8 -39 -30 -49 -48 -16 -29 -16 -36 -4 -61 21 -43
77 -78 114 -71 62 13 110 89 85 136 -14 26 -68 60 -95 60 -11 0 -34 -7 -51
-16z"/>
<path d="M1730 4690 l0 -230 83 6 c140 11 131 -3 140 223 10 242 16 231 -125
231 l-98 0 0 -230z"/>
<path d="M3294 4874 c3 -26 6 -131 6 -234 l0 -186 88 4 c139 7 132 -6 132 237
0 192 -1 205 -19 215 -11 5 -63 10 -117 10 l-97 0 7 -46z"/>
<path d="M2620 4668 c-7 -40 -22 -122 -35 -183 -13 -60 -27 -138 -31 -172 l-7
-63 79 6 c44 4 82 9 86 13 3 3 -9 94 -28 201 -19 107 -34 209 -34 227 0 61
-18 43 -30 -29z"/>
<path d="M4080 4740 l0 -181 78 7 c88 8 130 25 136 57 3 12 8 75 11 140 9 157
8 157 -127 157 l-98 0 0 -180z"/>
<path d="M4080 4186 l0 -196 98 0 c141 0 136 -7 141 188 l3 160 -27 18 c-20
13 -54 19 -121 22 l-94 4 0 -196z"/>
<path d="M4958 4745 c-10 -28 -88 -443 -88 -467 0 -16 5 -19 23 -14 12 3 50 6
83 6 58 0 61 1 58 23 -50 311 -64 399 -66 432 -2 30 -5 35 -10 20z"/>
<path d="M4787 3413 c-8 -28 -22 -64 -31 -81 -9 -17 -16 -35 -16 -39 0 -4 29
-9 65 -11 39 -2 65 1 65 7 0 14 -52 154 -61 165 -4 5 -14 -14 -22 -41z"/>
<path d="M4207 3493 c-4 -3 -7 -73 -7 -154 l0 -148 68 6 c59 5 71 10 104 41
50 47 64 90 48 147 -21 74 -82 115 -171 115 -20 0 -39 -3 -42 -7z"/>
<path d="M5235 3425 l-1 -78 74 6 c41 3 80 11 86 17 6 6 11 28 11 50 0 58 -21
74 -103 78 l-67 4 0 -77z"/>
<path d="M5690 3425 l0 -75 58 0 c78 0 102 17 102 75 0 58 -24 75 -102 75
l-58 0 0 -75z"/>
<path d="M1202 3150 c-51 -58 -117 -131 -148 -163 l-55 -58 58 -62 c32 -34 87
-98 122 -142 75 -94 122 -145 132 -145 4 0 5 62 2 138 -4 106 -9 141 -22 156
-25 29 -93 55 -163 63 -58 6 -60 7 -28 14 19 4 70 10 112 14 77 7 77 7 83 38
3 18 5 81 3 142 l-3 109 -93 -104z"/>
<path d="M1340 3124 c0 -66 4 -124 8 -130 4 -6 41 -22 82 -36 l75 -25 -60 -18
c-98 -31 -105 -43 -105 -179 0 -63 4 -117 9 -120 13 -8 51 30 139 139 44 55
94 113 111 129 17 17 31 34 31 38 0 5 -16 23 -35 40 -20 17 -78 81 -129 142
-136 162 -126 160 -126 20z"/>
</g>
</svg>
